<svg version="1.1" xmlns="http://www.w3.org/2000/svg" xmlns:xlink="http://www.w3.org/1999/xlink" x="0px" y="0px" width="512px" height="512px" viewBox="0 0 512 512" style="enable-background:new 0 0 512 512;" xml:space="preserve">
<g id="C313_x2C__Biology_x2C__experiment_x2C__learn_x2C__science_x2C__study">
	<path style="fill:#2DCA6F;" d="M312.57,99.43C298.09,84.96,278.09,76,256,76c-44.18,0-80,35.82-80,80v40v60v60v40
		c0,44.18,35.82,80,80,80c44.18,0,80-35.82,80-80v-40v-60v-60v-40C336,133.91,327.04,113.91,312.57,99.43z"></path>
	<path style="fill:#A5C63B;" d="M46,36c11.05,0,20,8.95,20,20s-8.95,20-20,20s-20-8.95-20-20S34.95,36,46,36z"></path>
	<path style="fill:#A5C63B;" d="M76,266c11.05,0,20,8.95,20,20s-8.95,20-20,20s-20-8.95-20-20S64.95,266,76,266z"></path>
	<path style="fill:#A5C63B;" d="M426,86c11.05,0,20,8.95,20,20s-8.95,20-20,20s-20-8.95-20-20S414.95,86,426,86z"></path>
	<path style="fill:#A5C63B;" d="M466,206c11.05,0,20,8.95,20,20s-8.95,20-20,20s-20-8.95-20-20S454.95,206,466,206z"></path>
	<path style="fill:#A5C63B;" d="M291.88,161.88v188.24c0,19.82-16.07,35.88-35.88,35.88c-19.81,0-35.88-16.06-35.88-35.88V161.88
		c0-19.82,16.07-35.88,35.88-35.88c9.9,0,18.88,4.02,25.37,10.51C287.86,143,291.88,151.97,291.88,161.88z"></path>
	<path d="M256,446c-49.626,0-90-40.374-90-90V156c0-49.626,40.374-90,90-90c24.03,0,46.631,9.36,63.639,26.356
		C336.64,109.37,346,131.97,346,156v200C346,405.626,305.626,446,256,446z M256,86c-38.598,0-70,31.402-70,70v200
		c0,38.598,31.402,70,70,70c38.598,0,70-31.402,70-70V156c0-18.69-7.281-36.27-20.503-49.501C292.271,93.282,274.69,86,256,86z"></path>
	<path d="M256,396c-25.298,0-45.88-20.582-45.88-45.88V161.88c0-25.298,20.582-45.88,45.88-45.88
		c12.253,0,23.774,4.772,32.441,13.438c8.666,8.667,13.438,20.188,13.438,32.441v188.24C301.88,375.418,281.298,396,256,396z
		 M256,136c-14.27,0-25.88,11.61-25.88,25.88v188.24c0,14.271,11.61,25.88,25.88,25.88c14.271,0,25.88-11.609,25.88-25.88V161.88
		c0-6.912-2.692-13.411-7.581-18.299C269.41,138.692,262.911,136,256,136z"></path>
	<path d="M256,86c-5.523,0-10-4.477-10-10V26c0-5.523,4.477-10,10-10c5.522,0,10,4.477,10,10v50C266,81.523,261.522,86,256,86z"></path>
	<path d="M256,496c-5.523,0-10-4.478-10-10v-50c0-5.522,4.477-10,10-10c5.522,0,10,4.478,10,10v50C266,491.522,261.522,496,256,496z
		"></path>
	<path d="M326,476.003c-4.102,0-7.947-2.543-9.412-6.625l-16.89-47.06c-1.865-5.198,0.836-10.925,6.034-12.79
		c5.2-1.865,10.925,0.836,12.79,6.034l16.89,47.06c1.865,5.198-0.836,10.925-6.034,12.79
		C328.262,475.813,327.121,476.003,326,476.003z"></path>
	<path d="M202.891,103.063c-4.102,0-7.947-2.542-9.413-6.625l-16.89-47.06c-1.866-5.198,0.836-10.924,6.034-12.79
		c5.198-1.865,10.924,0.835,12.79,6.034l16.89,47.06c1.866,5.198-0.836,10.924-6.034,12.79
		C205.152,102.873,204.012,103.063,202.891,103.063z"></path>
	<path d="M175.993,476.002c-1.43,0-2.882-0.308-4.261-0.958c-4.995-2.357-7.133-8.317-4.776-13.312l21.34-45.22
		c2.357-4.994,8.319-7.131,13.311-4.776c4.995,2.357,7.133,8.317,4.776,13.312l-21.34,45.22
		C183.337,473.883,179.742,476.002,175.993,476.002z"></path>
	<path d="M315.993,111.223c-1.43,0-2.882-0.308-4.261-0.959c-4.995-2.357-7.133-8.316-4.776-13.311l21.34-45.22
		c2.357-4.995,8.314-7.134,13.312-4.776c4.995,2.357,7.133,8.316,4.776,13.311l-21.34,45.22
		C323.337,109.104,319.743,111.223,315.993,111.223z"></path>
	<path d="M176,146h-40c-5.523,0-10-4.477-10-10s4.477-10,10-10h40c5.523,0,10,4.477,10,10S181.523,146,176,146z"></path>
	<path d="M376,146h-40c-5.522,0-10-4.477-10-10s4.478-10,10-10h40c5.522,0,10,4.477,10,10S381.522,146,376,146z"></path>
	<path d="M176,206h-40c-5.523,0-10-4.477-10-10s4.477-10,10-10h40c5.523,0,10,4.477,10,10S181.523,206,176,206z"></path>
	<path d="M376,206h-40c-5.522,0-10-4.477-10-10s4.478-10,10-10h40c5.522,0,10,4.477,10,10S381.522,206,376,206z"></path>
	<path d="M176,266h-40c-5.523,0-10-4.478-10-10c0-5.523,4.477-10,10-10h40c5.523,0,10,4.477,10,10C186,261.522,181.523,266,176,266z
		"></path>
	<path d="M376,266h-40c-5.522,0-10-4.478-10-10c0-5.523,4.478-10,10-10h40c5.522,0,10,4.477,10,10C386,261.522,381.522,266,376,266z
		"></path>
	<path d="M176,326h-40c-5.523,0-10-4.478-10-10s4.477-10,10-10h40c5.523,0,10,4.478,10,10S181.523,326,176,326z"></path>
	<path d="M376,326h-40c-5.522,0-10-4.478-10-10s4.478-10,10-10h40c5.522,0,10,4.478,10,10S381.522,326,376,326z"></path>
	<path d="M176,386h-40c-5.523,0-10-4.478-10-10s4.477-10,10-10h40c5.523,0,10,4.478,10,10S181.523,386,176,386z"></path>
	<path d="M376,386h-40c-5.522,0-10-4.478-10-10s4.478-10,10-10h40c5.522,0,10,4.478,10,10S381.522,386,376,386z"></path>
	<path d="M486,496H26c-5.523,0-10-4.478-10-10s4.477-10,10-10h460c5.522,0,10,4.478,10,10S491.522,496,486,496z"></path>
	<path d="M466,256c-16.542,0-30-13.458-30-30s13.458-30,30-30s30,13.458,30,30S482.542,256,466,256z M466,216
		c-5.514,0-10,4.486-10,10s4.486,10,10,10s10-4.486,10-10S471.514,216,466,216z"></path>
	<path d="M46,86c-16.542,0-30-13.458-30-30s13.458-30,30-30s30,13.458,30,30S62.542,86,46,86z M46,46c-5.514,0-10,4.486-10,10
		s4.486,10,10,10s10-4.486,10-10S51.514,46,46,46z"></path>
	<path d="M76,316c-16.542,0-30-13.458-30-30s13.458-30,30-30s30,13.458,30,30S92.542,316,76,316z M76,276c-5.514,0-10,4.486-10,10
		s4.486,10,10,10s10-4.486,10-10S81.514,276,76,276z"></path>
	<path d="M426,136c-16.542,0-30-13.458-30-30s13.458-30,30-30s30,13.458,30,30S442.542,136,426,136z M426,96
		c-5.514,0-10,4.486-10,10s4.486,10,10,10s10-4.486,10-10S431.514,96,426,96z"></path>
</g>
<g id="Layer_1">
</g>
</svg>