<svg xmlns="http://www.w3.org/2000/svg" viewBox="0 0 64 64"><title>Saving, bank, cash, money, economy, </title><g id="Flat"><circle cx="32" cy="32" r="9" style="fill:#fcd63a"></circle><path d="M32,37a2.986,2.986,0,0,1-2.865-2.109,1,1,0,1,1,1.91-.594A1,1,0,1,0,32,33a3,3,0,1,1,2.867-3.886,1,1,0,0,1-1.911.59A1,1,0,1,0,32,31a3,3,0,0,1,0,6Z" style="fill:#d3ab05"></path><path d="M32,39a1,1,0,0,1-1-1V36a1,1,0,0,1,2,0v2A1,1,0,0,1,32,39Z" style="fill:#d3ab05"></path><path d="M32,29a1,1,0,0,1-1-1V26a1,1,0,0,1,2,0v2A1,1,0,0,1,32,29Z" style="fill:#d3ab05"></path><path d="M27.964,26.092a1,1,0,0,1-.506-1.864,9,9,0,0,1,2.293-.945,1,1,0,0,1,.5,1.938,6.916,6.916,0,0,0-1.78.734A1,1,0,0,1,27.964,26.092Z" style="fill:#fcfcae"></path><rect x="9" y="21" width="8" height="28" style="fill:#ddd"></rect><polygon points="61 16 61 19 3 19 3 16 32 3 34.5 4.12 43 7.93 45 8.83 61 16" style="fill:#ddd"></polygon><polygon points="61 16 61 19 8 19 8 16 34.5 4.12 43 7.93 45 8.83 61 16" style="fill:#e5e3e3"></polygon><rect x="24" y="47" width="16" height="6" rx="2" style="fill:#fcd63a"></rect><path d="M40,49H24a2,2,0,0,1,2-2H38a2,2,0,0,1,2,2Z" style="fill:#efc822"></path><rect x="27" y="47" width="2" height="3" style="fill:#e5ba05"></rect><rect x="31" y="47" width="2" height="3" style="fill:#e5ba05"></rect><rect x="35" y="47" width="2" height="3" style="fill:#e5ba05"></rect><rect x="26" y="41" width="16" height="6" rx="2" style="fill:#fcd63a"></rect><path d="M42,43H26a2,2,0,0,1,2-2H40a2,2,0,0,1,2,2Z" style="fill:#efc822"></path><rect x="29" y="41" width="2" height="3" style="fill:#e5ba05"></rect><rect x="33" y="41" width="2" height="3" style="fill:#e5ba05"></rect><rect x="37" y="41" width="2" height="3" style="fill:#e5ba05"></rect><path d="M61,59v2H3V59a2.006,2.006,0,0,1,2-2H59A2.006,2.006,0,0,1,61,59Z" style="fill:#c6c6c6"></path><path d="M61,59v2H6V59a2.006,2.006,0,0,1,2-2H59A2.006,2.006,0,0,1,61,59Z" style="fill:#d6d4d4"></path><path d="M59,55v2H5V55a2.006,2.006,0,0,1,2-2H57A2.006,2.006,0,0,1,59,55Z" style="fill:#d1cfcf"></path><path d="M59,55v2H8V55a2.006,2.006,0,0,1,2-2H57A2.006,2.006,0,0,1,59,55Z" style="fill:#e2e2e2"></path><rect x="12" y="30" width="2" height="20" style="fill:#c1c1c1"></rect><circle cx="32" cy="12" r="3" style="fill:#29abe2"></circle><path d="M8,49H18a1,1,0,0,1,1,1v3a0,0,0,0,1,0,0H7a0,0,0,0,1,0,0V50A1,1,0,0,1,8,49Z" style="fill:#ccc"></path><rect x="47" y="22" width="8" height="27" style="fill:#ddd"></rect><path d="M53.184,23A2.995,2.995,0,1,0,56,19H46a3,3,0,1,0,2.816,4" style="fill:#e2e0e0"></path><path d="M56,26a4,4,0,0,1-3.758-2.665,1,1,0,1,1,1.884-.67A1.995,1.995,0,1,0,56,20H46a2,2,0,1,0,1.874,2.665,1,1,0,1,1,1.884.67A3.995,3.995,0,1,1,46,18H56a4,4,0,0,1,0,8Z" style="fill:#c9c9c9"></path><path d="M15.184,23A2.995,2.995,0,1,0,18,19H8a3,3,0,1,0,2.816,4" style="fill:#e2e0e0"></path><path d="M18,26a4,4,0,0,1-3.758-2.665,1,1,0,1,1,1.884-.67A1.995,1.995,0,1,0,18,20H8a2,2,0,1,0,1.875,2.665,1,1,0,1,1,1.883.67A3.995,3.995,0,1,1,8,18H18a4,4,0,0,1,0,8Z" style="fill:#c9c9c9"></path><rect x="50" y="30" width="2" height="20" style="fill:#c1c1c1"></rect><path d="M46,49H56a1,1,0,0,1,1,1v3a0,0,0,0,1,0,0H45a0,0,0,0,1,0,0V50A1,1,0,0,1,46,49Z" style="fill:#ccc"></path></g><g id="Outline"><path d="M32,31a1,1,0,1,1,.956-1.3,1,1,0,0,0,1.911-.59A2.977,2.977,0,0,0,33,27.173V26a1,1,0,0,0-2,0v1.184A2.993,2.993,0,0,0,32,33a1,1,0,1,1-.955,1.3,1,1,0,1,0-1.91.594A2.979,2.979,0,0,0,31,36.827V38a1,1,0,0,0,2,0V36.816A2.993,2.993,0,0,0,32,31Z"></path><path d="M61.409,15.088l-16-7.171L44.6,9.741,60,16.647V18H4V16.647L32,4.1,42.591,8.843l.818-1.824-11-4.931a1,1,0,0,0-.818,0l-29,13A1,1,0,0,0,2,16v3a1,1,0,0,0,1,1H4.556A3.959,3.959,0,0,0,4,22a4,4,0,0,0,4,4V48H7a1,1,0,0,0-1,1v3.184A3,3,0,0,0,4,55v1.184A3,3,0,0,0,2,59v2a1,1,0,0,0,1,1H15.032V60H4V59a1,1,0,0,1,1-1H59a1,1,0,0,1,1,1v1H17v2H61a1,1,0,0,0,1-1V59a3,3,0,0,0-2-2.816V55a3,3,0,0,0-2-2.816V49a1,1,0,0,0-1-1H56V26a4,4,0,0,0,4-4,3.959,3.959,0,0,0-.556-2H61a1,1,0,0,0,1-1V16A1,1,0,0,0,61.409,15.088ZM46,26V48H45a1,1,0,0,0-1,1v3H40.874A2.74,2.74,0,0,0,41,51.218V48.782a2.765,2.765,0,0,0-.15-.861,2.783,2.783,0,0,0,2.15-2.7V42.782A2.785,2.785,0,0,0,40.218,40H37.974a9.992,9.992,0,1,0-11.487.335A2.773,2.773,0,0,0,25,42.782v2.436a2.765,2.765,0,0,0,.15.861,2.783,2.783,0,0,0-2.15,2.7v2.436a2.74,2.74,0,0,0,.126.782H20V49a1,1,0,0,0-1-1H18V26a4,4,0,0,0,4-4,3.959,3.959,0,0,0-.556-2H42.556A3.959,3.959,0,0,0,42,22,4,4,0,0,0,46,26ZM56,50v2H46V50H56ZM25,51.218V48.782A.783.783,0,0,1,25.782,48H27v2h2V48h2v2h2V48h2v2h2V48h1.218a.783.783,0,0,1,.782.782v2.436a.783.783,0,0,1-.782.782H25.782A.783.783,0,0,1,25,51.218Zm2-6V42.782A.783.783,0,0,1,27.782,42H29v2h2V42h2v2h2V42h2v2h2V42h1.218a.783.783,0,0,1,.782.782v2.436a.783.783,0,0,1-.782.782H27.782A.783.783,0,0,1,27,45.218ZM32,40a8,8,0,1,1,8-8A8.009,8.009,0,0,1,32,40ZM10,25.444a4.006,4.006,0,0,0,1.758-2.109,1,1,0,1,0-1.883-.67A2,2,0,1,1,8,20H18a2,2,0,1,1-1.874,2.665,1,1,0,1,0-1.884.67A4.006,4.006,0,0,0,16,25.444V48H14V30H12V48H10ZM8,50H18v2H8ZM6,56V55a1,1,0,0,1,1-1H57a1,1,0,0,1,1,1v1ZM58,22a1.993,1.993,0,0,1-3.874.665,1,1,0,1,0-1.884.67A4.006,4.006,0,0,0,54,25.444V48H52V30H50V48H48V25.444a4.006,4.006,0,0,0,1.758-2.109,1,1,0,1,0-1.884-.67A1.995,1.995,0,1,1,46,20H56A2,2,0,0,1,58,22Z"></path><path d="M28,12a4,4,0,1,0,4-4A4,4,0,0,0,28,12Zm6,0a2,2,0,1,1-2-2A2,2,0,0,1,34,12Z"></path></g></svg>