<svg version="1.1" id="Layer_32" xmlns="http://www.w3.org/2000/svg" xmlns:xlink="http://www.w3.org/1999/xlink" x="0px" y="0px" viewBox="0 0 64 64" style="enable-background:new 0 0 64 64;" xml:space="preserve">
<style type="text/css">
	.st0{fill:#EEEEEE;}
	.st1{fill:#E0E0E0;}
	.st2{fill:#FFFFFF;}
	.st3{fill:#3477CC;}
	.st4{fill:#F9F9F9;}
	.st5{fill:#BDBDBD;}
	.st6{fill:#D4483F;}
	.st7{fill:#B73831;}
	.st8{fill:#EEAB46;}
	.st9{fill:#F3C14F;}
	.st10{fill:#2B66BA;}
	.st11{fill:#F2F2F2;}
	.st12{fill:#BCE4F8;}
	.st13{fill:#E4F5FD;}
	.st14{fill:#F8DA95;}
	.st15{fill:#3E89DE;}
	.st16{fill:#939393;}
	.st17{fill:#DE5E57;}
	.st18{fill:#F9EBD2;}
	.st19{fill:#F7DFB6;}
</style>
<g>
	<path class="st8" d="M58,38H10c-2.2,0-4,1.8-4,4v0c0,2.2,1.8,4,4,4h48v4H10c-4.4,0-8-3.6-8-8v0c0-4.4,3.6-8,8-8h48V38z"></path>
	<path class="st6" d="M2,30h48c2.2,0,4-1.8,4-4v0c0-2.2-1.8-4-4-4H2v-4h48c4.4,0,8,3.6,8,8v0c0,4.4-3.6,8-8,8H2V30z"></path>
	<path class="st1" d="M4,30c0,0,0-8,0-8h46c2.2,0,4,1.8,4,4v0c0,2.2-1.8,4-4,4H4z"></path>
	<path class="st4" d="M4,30h46c2.2,0,4-1.8,4-4H4V30z"></path>
	<path class="st1" d="M56,38c0,0,0,8,0,8H10c-2.2,0-4-1.8-4-4v0c0-2.2,1.8-4,4-4H56z"></path>
	<path class="st4" d="M56,38H10c-2.2,0-4,1.8-4,4h50V38z"></path>
	<circle class="st5" cx="47" cy="36" r="15"></circle>
	<path class="st1" d="M47,51c-1,0-2-0.1-3-0.3V57h6v-6.3C49,50.9,48,51,47,51z"></path>
	<rect x="42" y="57" class="st5" width="10" height="6"></rect>
	<circle class="st1" cx="47" cy="36" r="11"></circle>
	<path class="st3" d="M58,6H10c-2.2,0-4,1.8-4,4v0c0,2.2,1.8,4,4,4h48v4H10c-4.4,0-8-3.6-8-8v0c0-4.4,3.6-8,8-8h48V6z"></path>
	<path class="st1" d="M56,6c0,0,0,8,0,8H10c-2.2,0-4-1.8-4-4v0c0-2.2,1.8-4,4-4H56z"></path>
	<path class="st4" d="M56,6H10c-2.2,0-4,1.8-4,4h50V6z"></path>
	<g>
		<path d="M63,36c0-4.1-1.5-7.8-4-10.6c-0.2-2.6-1.4-4.9-3.3-6.4H58c0.6,0,1-0.4,1-1v-4c0-0.6-0.4-1-1-1h-1V7h1c0.6,0,1-0.4,1-1V2
			c0-0.6-0.4-1-1-1H10c-5,0-9,4-9,9c0,2.8,1.3,5.3,3.4,7H2c-0.6,0-1,0.4-1,1v4c0,0.6,0.4,1,1,1h1v6H2c-0.6,0-1,0.4-1,1v4
			c0,0.6,0.4,1,1,1h2.4c-2,1.7-3.4,4.2-3.4,7c0,5,4,9,9,9h31.5c0.5,0.2,1,0.3,1.5,0.5V56h-1c-0.6,0-1,0.4-1,1v6h2v-5h8v5h2v-6
			c0-0.6-0.4-1-1-1h-1v-4.5C57.9,49.7,63,43.4,63,36z M3,10c0-3.9,3.1-7,7-7h47v2H10c-2.8,0-5,2.2-5,5s2.2,5,5,5h47v2H10
			C6.1,17,3,13.9,3,10z M7.2,9C7.6,7.8,8.7,7,10,7h45v2H7.2z M55,11v2H10c-1.3,0-2.4-0.8-2.8-2H55z M3,19h47c2.8,0,5.2,1.7,6.3,4
			c-2.6-1.9-5.8-3-9.3-3c-1.9,0-3.8,0.4-5.5,1H3V19z M32.6,43c0.3,0.7,0.7,1.4,1.1,2H10c-1.3,0-2.4-0.8-2.8-2H32.6z M7.2,41
			c0.4-1.2,1.5-2,2.8-2h21.3c0.1,0.7,0.3,1.4,0.5,2H7.2z M32.6,29H5v-2h28.8C33.3,27.6,33,28.3,32.6,29z M5,25v-2h32.7
			c-0.8,0.6-1.6,1.3-2.3,2H5z M3,33v-2h28.8c-0.2,0.6-0.4,1.3-0.5,2H3z M10,49c-3.9,0-7-3.1-7-7s3.1-7,7-7h21.1c0,0.3-0.1,0.7-0.1,1
			s0,0.7,0.1,1H10c-2.8,0-5,2.2-5,5s2.2,5,5,5h25.4c0.7,0.7,1.5,1.4,2.3,2H10z M49,56h-4v-4.1c0.7,0.1,1.3,0.1,2,0.1s1.3-0.1,2-0.1
			V56z M47,50c-7.7,0-14-6.3-14-14s6.3-14,14-14s14,6.3,14,14S54.7,50,47,50z"></path>
		<path d="M47,24c-6.6,0-12,5.4-12,12s5.4,12,12,12s12-5.4,12-12S53.6,24,47,24z M46.6,26L37,35.6C37.2,30.4,41.4,26.2,46.6,26z
			 M47,46c-4.8,0-8.8-3.4-9.8-7.8l11.9-11.9c0.8,0.2,1.6,0.5,2.3,0.8l-4.2,4.2l1.4,1.4l4.5-4.5C55.5,30,57,32.8,57,36
			C57,41.5,52.5,46,47,46z"></path>
		<rect x="43.6" y="34" transform="matrix(0.7071 -0.7071 0.7071 0.7071 -11.5685 42.0711)" width="2.8" height="2"></rect>
	</g>
</g>
</svg>