<svg width="64" height="64" viewBox="0 0 64 64" fill="none" xmlns="http://www.w3.org/2000/svg">
<path d="M55 3H9V39H55V3Z" fill="#FFEB99"></path>
<path d="M19 39H55V3C55 12.5478 51.2072 21.7045 44.4558 28.4558C37.7045 35.2072 28.5478 39 19 39V39Z" fill="#FFE477"></path>
<path d="M50 36C49.2044 36 48.4413 36.3161 47.8787 36.8787C47.3161 37.4413 47 38.2044 47 39V37C47 36.2044 46.6839 35.4413 46.1213 34.8787C45.5587 34.3161 44.7957 34 44 34C43.2044 34 42.4413 34.3161 41.8787 34.8787C41.3161 35.4413 41 36.2044 41 37C41 36.2044 40.6839 35.4413 40.1213 34.8787C39.5587 34.3161 38.7957 34 38 34C37.2044 34 36.4413 34.3161 35.8787 34.8787C35.3161 35.4413 35 36.2044 35 37V26C35 25.2044 34.6839 24.4413 34.1213 23.8787C33.5587 23.3161 32.7957 23 32 23C31.2044 23 30.4413 23.3161 29.8787 23.8787C29.3161 24.4413 29 25.2044 29 26V48C29 48 26.075 42.934 24.015 39.346C23.7514 38.8886 23.4001 38.4878 22.9812 38.1666C22.5623 37.8453 22.0841 37.6099 21.574 37.4739C21.064 37.3379 20.5321 37.3039 20.0088 37.3739C19.4856 37.444 18.9814 37.6166 18.525 37.882L18.46 37.92C18.2424 38.0457 18.052 38.2136 17.9001 38.4139C17.7482 38.6141 17.6378 38.8427 17.5754 39.0861C17.513 39.3296 17.4998 39.5831 17.5367 39.8317C17.5736 40.0803 17.6597 40.3191 17.79 40.534L28.419 58.043C28.799 58.6688 29 59.3869 29 60.119V61H51V60.211C51 59.4212 51.2339 58.6491 51.672 57.992L52.328 57.008C52.7662 56.3509 53 55.5788 53 54.789V39C53 38.2044 52.6839 37.4413 52.1213 36.8787C51.5587 36.3161 50.7957 36 50 36V36Z" fill="#FFBCAB"></path>
<path d="M57 3H55V39H57C58.0609 39 59.0783 38.5786 59.8284 37.8284C60.5786 37.0783 61 36.0609 61 35V7C61 5.93913 60.5786 4.92172 59.8284 4.17157C59.0783 3.42143 58.0609 3 57 3Z" fill="#006DF0"></path>
<path d="M3 7V35C3 36.0609 3.42143 37.0783 4.17157 37.8284C4.92172 38.5786 5.93913 39 7 39H9V3H7C5.93913 3 4.92172 3.42143 4.17157 4.17157C3.42143 4.92172 3 5.93913 3 7V7Z" fill="#006DF0"></path>
<path d="M26 8H19C18.7771 8.00001 18.5605 8.0745 18.3848 8.21166C18.209 8.34881 18.0842 8.54075 18.03 8.757L16.54 14.719L14.8 12.4C14.7143 12.2849 14.6048 12.1897 14.479 12.1206C14.3532 12.0516 14.2141 12.0105 14.071 12C13.9282 11.9915 13.7852 12.013 13.6512 12.0632C13.5172 12.1133 13.3952 12.1909 13.293 12.291L12.293 13.291C12.1108 13.4796 12.01 13.7322 12.0123 13.9944C12.0146 14.2566 12.1198 14.5074 12.3052 14.6928C12.4906 14.8782 12.7414 14.9834 13.0036 14.9857C13.2658 14.988 13.5184 14.8872 13.707 14.705L13.892 14.52L16.2 17.6C16.2931 17.7242 16.4139 17.825 16.5528 17.8944C16.6916 17.9639 16.8447 18 17 18C17.0672 18.0004 17.1342 17.9937 17.2 17.98C17.3851 17.9426 17.5559 17.8535 17.6925 17.7231C17.8292 17.5927 17.926 17.4262 17.972 17.243L19.781 10H26C26.2652 10 26.5196 9.89464 26.7071 9.70711C26.8946 9.51957 27 9.26522 27 9C27 8.73478 26.8946 8.48043 26.7071 8.29289C26.5196 8.10536 26.2652 8 26 8Z" fill="#231F20"></path>
<path d="M20.293 17.707C20.4806 17.8945 20.7349 17.9998 21 17.9998C21.2652 17.9998 21.5195 17.8945 21.707 17.707L23 16.414L24.293 17.707C24.4816 17.8892 24.7342 17.99 24.9964 17.9877C25.2586 17.9854 25.5094 17.8803 25.6948 17.6949C25.8803 17.5095 25.9854 17.2586 25.9877 16.9964C25.99 16.7342 25.8892 16.4816 25.707 16.293L24.414 15L25.707 13.707C25.8892 13.5184 25.99 13.2658 25.9877 13.0036C25.9854 12.7414 25.8803 12.4906 25.6948 12.3052C25.5094 12.1198 25.2586 12.0146 24.9964 12.0124C24.7342 12.0101 24.4816 12.1109 24.293 12.293L23 13.586L21.707 12.293C21.5184 12.1109 21.2658 12.0101 21.0036 12.0124C20.7414 12.0146 20.4906 12.1198 20.3052 12.3052C20.1198 12.4906 20.0146 12.7414 20.0124 13.0036C20.0101 13.2658 20.1109 13.5184 20.293 13.707L21.586 15L20.293 16.293C20.1056 16.4806 20.0002 16.7349 20.0002 17C20.0002 17.2652 20.1056 17.5195 20.293 17.707Z" fill="#231F20"></path>
<path d="M26 22H19C18.7771 22 18.5605 22.0745 18.3848 22.2117C18.209 22.3488 18.0842 22.5408 18.03 22.757L16.54 28.719L14.8 26.4C14.7143 26.2849 14.6048 26.1897 14.479 26.1206C14.3532 26.0516 14.2141 26.0105 14.071 26C13.9282 25.992 13.7854 26.0138 13.6514 26.0639C13.5175 26.1139 13.3955 26.1913 13.293 26.291L12.293 27.291C12.1108 27.4796 12.01 27.7322 12.0123 27.9944C12.0146 28.2566 12.1198 28.5074 12.3052 28.6928C12.4906 28.8782 12.7414 28.9834 13.0036 28.9857C13.2658 28.988 13.5184 28.8872 13.707 28.705L13.892 28.52L16.2 31.6C16.2931 31.7242 16.4139 31.825 16.5528 31.8944C16.6916 31.9639 16.8447 32 17 32C17.0672 32.0004 17.1342 31.9937 17.2 31.98C17.3851 31.9426 17.5559 31.8535 17.6925 31.7231C17.8292 31.5927 17.926 31.4262 17.972 31.243L19.781 24H26C26.2652 24 26.5196 23.8946 26.7071 23.7071C26.8946 23.5196 27 23.2652 27 23C27 22.7348 26.8946 22.4804 26.7071 22.2929C26.5196 22.1054 26.2652 22 26 22Z" fill="#231F20"></path>
<path d="M25.707 26.293C25.5195 26.1056 25.2652 26.0002 25 26.0002C24.7349 26.0002 24.4805 26.1056 24.293 26.293L23 27.586L21.707 26.293C21.5184 26.1109 21.2658 26.0101 21.0036 26.0124C20.7414 26.0146 20.4906 26.1198 20.3052 26.3052C20.1198 26.4906 20.0146 26.7414 20.0123 27.0036C20.0101 27.2658 20.1109 27.5184 20.293 27.707L21.586 29L20.293 30.293C20.1975 30.3853 20.1213 30.4956 20.0689 30.6176C20.0165 30.7396 19.9889 30.8709 19.9878 31.0036C19.9866 31.1364 20.0119 31.2681 20.0622 31.391C20.1125 31.5139 20.1867 31.6255 20.2806 31.7194C20.3745 31.8133 20.4862 31.8876 20.6091 31.9379C20.732 31.9881 20.8636 32.0134 20.9964 32.0123C21.1292 32.0111 21.2604 31.9835 21.3824 31.9311C21.5044 31.8787 21.6148 31.8025 21.707 31.707L23 30.414L24.293 31.707C24.4816 31.8892 24.7342 31.99 24.9964 31.9877C25.2586 31.9854 25.5094 31.8803 25.6948 31.6948C25.8802 31.5094 25.9854 31.2586 25.9877 30.9964C25.99 30.7342 25.8892 30.4816 25.707 30.293L24.414 29L25.707 27.707C25.8945 27.5195 25.9998 27.2652 25.9998 27C25.9998 26.7349 25.8945 26.4806 25.707 26.293Z" fill="#231F20"></path>
<path d="M43.707 12.293C43.5195 12.1056 43.2652 12.0002 43 12.0002C42.7349 12.0002 42.4805 12.1056 42.293 12.293L41 13.586L39.707 12.293C39.5184 12.1109 39.2658 12.0101 39.0036 12.0124C38.7414 12.0146 38.4906 12.1198 38.3052 12.3052C38.1198 12.4906 38.0146 12.7414 38.0123 13.0036C38.0101 13.2658 38.1109 13.5184 38.293 13.707L39.586 15L38.293 16.293C38.1975 16.3853 38.1213 16.4956 38.0689 16.6176C38.0165 16.7396 37.9889 16.8709 37.9878 17.0036C37.9866 17.1364 38.0119 17.2681 38.0622 17.391C38.1125 17.5139 38.1867 17.6255 38.2806 17.7194C38.3745 17.8133 38.4862 17.8876 38.6091 17.9379C38.732 17.9881 38.8636 18.0134 38.9964 18.0123C39.1292 18.0111 39.2604 17.9835 39.3824 17.9311C39.5044 17.8787 39.6148 17.8025 39.707 17.707L41 16.414L42.293 17.707C42.4816 17.8892 42.7342 17.99 42.9964 17.9877C43.2586 17.9854 43.5094 17.8803 43.6948 17.6948C43.8802 17.5094 43.9854 17.2586 43.9877 16.9964C43.99 16.7342 43.8892 16.4816 43.707 16.293L42.414 15L43.707 13.707C43.8945 13.5195 43.9998 13.2652 43.9998 13C43.9998 12.7349 43.8945 12.4806 43.707 12.293V12.293Z" fill="#231F20"></path>
<path d="M43.707 26.293C43.5195 26.1056 43.2652 26.0002 43 26.0002C42.7349 26.0002 42.4805 26.1056 42.293 26.293L41 27.586L39.707 26.293C39.5184 26.1109 39.2658 26.0101 39.0036 26.0124C38.7414 26.0146 38.4906 26.1198 38.3052 26.3052C38.1198 26.4906 38.0146 26.7414 38.0123 27.0036C38.0101 27.2658 38.1109 27.5184 38.293 27.707L39.586 29L38.293 30.293C38.1975 30.3853 38.1213 30.4956 38.0689 30.6176C38.0165 30.7396 37.9889 30.8709 37.9878 31.0036C37.9866 31.1364 38.0119 31.2681 38.0622 31.391C38.1125 31.5139 38.1867 31.6255 38.2806 31.7194C38.3745 31.8133 38.4862 31.8876 38.6091 31.9379C38.732 31.9881 38.8636 32.0134 38.9964 32.0123C39.1292 32.0111 39.2604 31.9835 39.3824 31.9311C39.5044 31.8787 39.6148 31.8025 39.707 31.707L41 30.414L42.293 31.707C42.4816 31.8892 42.7342 31.99 42.9964 31.9877C43.2586 31.9854 43.5094 31.8803 43.6948 31.6948C43.8802 31.5094 43.9854 31.2586 43.9877 30.9964C43.99 30.7342 43.8892 30.4816 43.707 30.293L42.414 29L43.707 27.707C43.8945 27.5195 43.9998 27.2652 43.9998 27C43.9998 26.7349 43.8945 26.4806 43.707 26.293V26.293Z" fill="#231F20"></path>
<path d="M50.707 26.293C50.5195 26.1056 50.2652 26.0002 50 26.0002C49.7349 26.0002 49.4805 26.1056 49.293 26.293L48 27.586L46.707 26.293C46.5184 26.1109 46.2658 26.0101 46.0036 26.0124C45.7414 26.0146 45.4906 26.1198 45.3052 26.3052C45.1198 26.4906 45.0146 26.7414 45.0123 27.0036C45.0101 27.2658 45.1109 27.5184 45.293 27.707L46.586 29L45.293 30.293C45.1975 30.3853 45.1213 30.4956 45.0689 30.6176C45.0165 30.7396 44.9889 30.8709 44.9878 31.0036C44.9866 31.1364 45.0119 31.2681 45.0622 31.391C45.1125 31.5139 45.1867 31.6255 45.2806 31.7194C45.3745 31.8133 45.4862 31.8876 45.6091 31.9379C45.732 31.9881 45.8636 32.0134 45.9964 32.0123C46.1292 32.0111 46.2604 31.9835 46.3824 31.9311C46.5044 31.8787 46.6148 31.8025 46.707 31.707L48 30.414L49.293 31.707C49.4816 31.8892 49.7342 31.99 49.9964 31.9877C50.2586 31.9854 50.5094 31.8803 50.6948 31.6948C50.8802 31.5094 50.9854 31.2586 50.9877 30.9964C50.99 30.7342 50.8892 30.4816 50.707 30.293L49.414 29L50.707 27.707C50.8945 27.5195 50.9998 27.2652 50.9998 27C50.9998 26.7349 50.8945 26.4806 50.707 26.293V26.293Z" fill="#231F20"></path>
<path d="M33 12H31C30.7348 12 30.4804 12.1054 30.2929 12.2929C30.1054 12.4804 30 12.7348 30 13C30 13.2652 30.1054 13.5196 30.2929 13.7071C30.4804 13.8946 30.7348 14 31 14H33C33.2652 14 33.5196 13.8946 33.7071 13.7071C33.8946 13.5196 34 13.2652 34 13C34 12.7348 33.8946 12.4804 33.7071 12.2929C33.5196 12.1054 33.2652 12 33 12Z" fill="#231F20"></path>
<path d="M33 15H31C30.7348 15 30.4804 15.1054 30.2929 15.2929C30.1054 15.4804 30 15.7348 30 16C30 16.2652 30.1054 16.5196 30.2929 16.7071C30.4804 16.8946 30.7348 17 31 17H33C33.2652 17 33.5196 16.8946 33.7071 16.7071C33.8946 16.5196 34 16.2652 34 16C34 15.7348 33.8946 15.4804 33.7071 15.2929C33.5196 15.1054 33.2652 15 33 15Z" fill="#231F20"></path>
<path d="M57 2H7C5.67392 2 4.40215 2.52678 3.46447 3.46447C2.52678 4.40215 2 5.67392 2 7V35C2 36.3261 2.52678 37.5979 3.46447 38.5355C4.40215 39.4732 5.67392 40 7 40H16.55C16.6107 40.372 16.7432 40.7286 16.94 41.05L27.56 58.56C27.8486 59.0291 28.001 59.5692 28 60.12V61C28 61.2652 28.1054 61.5196 28.2929 61.7071C28.4804 61.8946 28.7348 62 29 62C29.2652 62 29.5196 61.8946 29.7071 61.7071C29.8946 61.5196 30 61.2652 30 61V60.12C30.0007 59.2027 29.7481 58.3029 29.27 57.52L18.65 40.02C18.5856 39.9185 18.5427 39.805 18.5238 39.6864C18.5048 39.5677 18.5104 39.4464 18.54 39.33C18.5766 39.2044 18.6391 39.0879 18.7235 38.988C18.8079 38.8881 18.9123 38.807 19.03 38.75C19.3716 38.5492 19.7496 38.4182 20.1422 38.3643C20.5348 38.3105 20.9341 38.3349 21.3172 38.4363C21.7003 38.5376 22.0594 38.7138 22.374 38.9548C22.6886 39.1957 22.9523 39.4966 23.15 39.84C25.21 43.43 28.13 48.5 28.13 48.5C28.2424 48.6898 28.4132 48.8381 28.6169 48.9228C28.8205 49.0076 29.0462 49.0241 29.26 48.97C29.4731 48.9126 29.6612 48.7864 29.7951 48.6109C29.9289 48.4355 30.001 48.2207 30 48V26C30 25.4696 30.2107 24.9609 30.5858 24.5858C30.9609 24.2107 31.4696 24 32 24C32.5304 24 33.0391 24.2107 33.4142 24.5858C33.7893 24.9609 34 25.4696 34 26V42C34 42.2652 34.1054 42.5196 34.2929 42.7071C34.4804 42.8946 34.7348 43 35 43C35.2652 43 35.5196 42.8946 35.7071 42.7071C35.8946 42.5196 36 42.2652 36 42V37C36 36.4696 36.2107 35.9609 36.5858 35.5858C36.9609 35.2107 37.4696 35 38 35C38.5304 35 39.0391 35.2107 39.4142 35.5858C39.7893 35.9609 40 36.4696 40 37V42C40 42.2652 40.1054 42.5196 40.2929 42.7071C40.4804 42.8946 40.7348 43 41 43C41.2652 43 41.5196 42.8946 41.7071 42.7071C41.8946 42.5196 42 42.2652 42 42V37C42 36.4696 42.2107 35.9609 42.5858 35.5858C42.9609 35.2107 43.4696 35 44 35C44.5304 35 45.0391 35.2107 45.4142 35.5858C45.7893 35.9609 46 36.4696 46 37V42C46 42.2652 46.1054 42.5196 46.2929 42.7071C46.4804 42.8946 46.7348 43 47 43C47.2652 43 47.5196 42.8946 47.7071 42.7071C47.8946 42.5196 48 42.2652 48 42V39C48 38.4696 48.2107 37.9609 48.5858 37.5858C48.9609 37.2107 49.4696 37 50 37C50.5304 37 51.0391 37.2107 51.4142 37.5858C51.7893 37.9609 52 38.4696 52 39V54.79C52.0021 55.3807 51.828 55.9587 51.5 56.45L50.84 57.44C50.2908 58.2592 49.9983 59.2237 50 60.21V61C50 61.2652 50.1054 61.5196 50.2929 61.7071C50.4804 61.8946 50.7348 62 51 62C51.2652 62 51.5196 61.8946 51.7071 61.7071C51.8946 61.5196 52 61.2652 52 61V60.21C51.9979 59.6193 52.172 59.0413 52.5 58.55L53.16 57.56C53.7092 56.7408 54.0017 55.7763 54 54.79V40H57C58.3261 40 59.5979 39.4732 60.5355 38.5355C61.4732 37.5979 62 36.3261 62 35V7C62 5.67392 61.4732 4.40215 60.5355 3.46447C59.5979 2.52678 58.3261 2 57 2V2ZM8 38H7C6.20508 37.9976 5.4434 37.6808 4.8813 37.1187C4.31921 36.5566 4.00237 35.7949 4 35V7C4.00237 6.20508 4.31921 5.4434 4.8813 4.8813C5.4434 4.31921 6.20508 4.00237 7 4H8V38ZM28 44.27C27.25 42.96 26.36 41.42 25.54 40H28V44.27ZM54 38H53.86C53.6389 37.1435 53.1401 36.3845 52.4416 35.8417C51.7432 35.2989 50.8846 35.0029 50 35C49.2006 34.9969 48.4192 35.2376 47.76 35.69C47.5353 35.0279 47.1395 34.4369 46.6127 33.9772C46.0859 33.5174 45.4468 33.2052 44.7604 33.0722C44.0739 32.9391 43.3645 32.9901 42.7041 33.2197C42.0437 33.4494 41.4558 33.8497 41 34.38C40.6284 33.948 40.1681 33.6011 39.6504 33.363C39.1327 33.1249 38.5698 33.0011 38 33C37.295 33.0028 36.6039 33.1963 36 33.56V26C36 24.9391 35.5786 23.9217 34.8284 23.1716C34.0783 22.4214 33.0609 22 32 22C30.9391 22 29.9217 22.4214 29.1716 23.1716C28.4214 23.9217 28 24.9391 28 26V38H24.26C23.4849 37.1328 22.4313 36.5633 21.2812 36.3899C20.131 36.2164 18.9564 36.4499 17.96 37.05C17.564 37.2863 17.2285 37.6115 16.98 38H10V4H54V38ZM60 35C59.9976 35.7949 59.6808 36.5566 59.1187 37.1187C58.5566 37.6808 57.7949 37.9976 57 38H56V4H57C57.7949 4.00237 58.5566 4.31921 59.1187 4.8813C59.6808 5.4434 59.9976 6.20508 60 7V35Z" fill="#231F20"></path>
<path d="M6 18C5.73478 18 5.48043 18.1054 5.29289 18.2929C5.10536 18.4804 5 18.7348 5 19V23C5 23.2652 5.10536 23.5196 5.29289 23.7071C5.48043 23.8946 5.73478 24 6 24C6.26522 24 6.51957 23.8946 6.70711 23.7071C6.89464 23.5196 7 23.2652 7 23V19C7 18.7348 6.89464 18.4804 6.70711 18.2929C6.51957 18.1054 6.26522 18 6 18Z" fill="#231F20"></path>
<path d="M58 18C57.7348 18 57.4804 18.1054 57.2929 18.2929C57.1054 18.4804 57 18.7348 57 19V23C57 23.2652 57.1054 23.5196 57.2929 23.7071C57.4804 23.8946 57.7348 24 58 24C58.2652 24 58.5196 23.8946 58.7071 23.7071C58.8946 23.5196 59 23.2652 59 23V19C59 18.7348 58.8946 18.4804 58.7071 18.2929C58.5196 18.1054 58.2652 18 58 18Z" fill="#231F20"></path>
<path d="M49.293 12.293L48 13.586L46.707 12.293C46.5184 12.1109 46.2658 12.0101 46.0036 12.0124C45.7414 12.0146 45.4906 12.1198 45.3052 12.3052C45.1198 12.4906 45.0146 12.7414 45.0123 13.0036C45.01 13.2658 45.1108 13.5184 45.293 13.707L47 15.414V17C47 17.2653 47.1053 17.5196 47.2929 17.7071C47.4804 17.8947 47.7348 18 48 18C48.2652 18 48.5196 17.8947 48.7071 17.7071C48.8946 17.5196 49 17.2653 49 17V15.414L50.707 13.707C50.8891 13.5184 50.9899 13.2658 50.9877 13.0036C50.9854 12.7414 50.8802 12.4906 50.6948 12.3052C50.5094 12.1198 50.2586 12.0146 49.9964 12.0124C49.7342 12.0101 49.4816 12.1109 49.293 12.293V12.293Z" fill="#231F20"></path>
</svg>