<svg id="_1_-_10" data-name="1 - 10" xmlns="http://www.w3.org/2000/svg" viewBox="0 0 48 48"><defs><style>.cls-1{fill:#fd3730;}.cls-2{fill:#d3241f;}.cls-3{fill:#8fa5a5;}.cls-4{fill:#fac100;}.cls-5{fill:#ff9500;}.cls-6{fill:#00cf66;}.cls-7{fill:#00b157;}.cls-8{fill:#009ae0;}.cls-9{fill:#0081bd;}</style></defs><title>Science</title><g id="Science"><circle class="cls-1" cx="24" cy="24" r="5"></circle><path class="cls-2" d="M26,26.5a4.479,4.479,0,0,1-3.557-7.228,4.986,4.986,0,1,0,6.285,6.285A4.459,4.459,0,0,1,26,26.5Z"></path><path class="cls-3" d="M24,46c-5.607,0-10-9.664-10-22S18.393,2,24,2s10,9.664,10,22S29.607,46,24,46ZM24,4c-3.863,0-8,8.037-8,20s4.137,20,8,20,8-8.037,8-20S27.863,4,24,4Z"></path><circle class="cls-4" cx="28.5" cy="6" r="2.5"></circle><path class="cls-5" d="M28.231,7.14a2.378,2.378,0,0,1-.871-3.249c.035-.061.081-.111.12-.167A2.5,2.5,0,1,0,30.666,7.25a2.294,2.294,0,0,0,.1-.216A2.371,2.371,0,0,1,28.231,7.14Z"></path><path class="cls-3" d="M43.632,12.666c2.8,4.856-3.369,13.492-14.053,19.66s-21.249,7.2-24.053,2.34S8.9,21.174,19.579,15.005,40.828,7.81,43.632,12.666Zm-36.374,21c1.932,3.345,10.96,2.91,21.321-3.072S43.831,17.011,41.9,13.666s-10.96-2.91-21.321,3.072S5.327,30.32,7.258,33.666Z"></path><circle class="cls-6" cx="6.741" cy="28.769" r="2.5"></circle><path class="cls-7" d="M6.471,29.909A2.379,2.379,0,0,1,5.6,26.66c.035-.061.081-.111.12-.167a2.5,2.5,0,1,0,3.186,3.526c.04-.07.064-.144.1-.216A2.372,2.372,0,0,1,6.471,29.909Z"></path><path class="cls-3" d="M5.068,12.4c2.8-4.856,13.369-3.829,24.052,2.34s16.857,14.8,14.053,19.66S29.8,38.229,19.12,32.061,2.264,17.257,5.068,12.4Zm36.373,21c1.932-3.346-2.96-10.947-13.321-16.928S8.732,10.055,6.8,13.4,9.76,24.347,20.12,30.329,39.509,36.747,41.441,33.4Z"></path><circle class="cls-8" cx="37.459" cy="36.298" r="2.5"></circle><path class="cls-9" d="M37.189,37.438a2.379,2.379,0,0,1-.87-3.249c.035-.06.08-.11.12-.166a2.473,2.473,0,0,0-1.145,1.025,2.5,2.5,0,1,0,4.33,2.5c.04-.07.064-.144.1-.215A2.374,2.374,0,0,1,37.189,37.438Z"></path></g></svg>